<?xml version="1.0" encoding="utf-8"?>
<!-- Generator: Adobe Illustrator 22.1.0, SVG Export Plug-In . SVG Version: 6.00 Build 0)  -->
<svg version="1.1" id="Ebene_1" xmlns="http://www.w3.org/2000/svg" xmlns:xlink="http://www.w3.org/1999/xlink" x="0px" y="0px"
	 viewBox="0 0 1717 771" style="enable-background:new 0 0 1717 771;" xml:space="preserve">
<style type="text/css">
	.st0{fill:#FFFFFF;}
	.st1{fill:#E20F0F;}
	.st2{fill:#DC0000;}
	.st3{fill:#A90000;}
	.st4{fill:#5C0000;}
	.st5{fill:none;stroke:#000000;stroke-width:5;stroke-miterlimit:10;}
	.st6{font-family:'Gadugi';}
	.st7{font-size:539.9818px;}
</style>
<g>
	<rect x="13" y="12" class="st0" width="1692" height="748.5"/>
	<g>
		<polygon class="st1" points="13.1,11.6 13.1,38.3 161.1,11.6 		"/>
		<polygon class="st2" points="455.2,11.6 161.1,11.6 13.1,38.3 13.1,61.5 		"/>
		<polygon class="st3" points="13.1,131.5 67.1,129.5 67.1,58.4 956.9,58.4 1256.1,11.6 455.2,11.6 13.1,61.5 		"/>
		<polygon class="st4" points="1654.6,58.4 1654.6,71.8 1705,70 1705,29.5 1571.9,58.4 		"/>
		<polygon class="st4" points="1705,29.5 1705,11.6 1256.1,11.6 956.9,58.4 1571.9,58.4 		"/>
		<polygon class="st1" points="67.1,129.5 13.1,131.5 13.1,206 67.1,197.5 		"/>
		<polygon class="st1" points="1654.6,110.2 1705,104 1705,94 1654.6,103.1 		"/>
		<polygon class="st1" points="1654.6,103.1 1705,94 1705,70 1654.6,71.8 		"/>
		<polygon class="st1" points="67.1,306.1 67.1,197.5 13.1,206 13.1,312.7 		"/>
		<polygon class="st3" points="1654.6,227.8 1705,223.7 1705,104 1654.6,110.2 		"/>
		<polygon class="st3" points="67.1,306.1 13.1,312.7 13.1,361.6 67.1,357.2 		"/>
		<polygon class="st1" points="1654.6,315.8 1705,309.6 1705,300.8 1654.6,308.6 		"/>
		<polygon class="st1" points="1654.6,308.6 1705,300.8 1705,227.6 1654.6,233.3 		"/>
		<polygon class="st1" points="30.1,417 67.1,415.2 67.1,412.8 		"/>
		<polygon class="st1" points="67.1,389.3 13.1,399.1 13.1,417.8 30.1,417 67.1,412.8 		"/>
		<polygon class="st1" points="1654.6,233.3 1705,227.6 1705,223.7 1654.6,227.8 		"/>
		<polygon class="st1" points="67.1,389.3 67.1,384.8 13.1,396.5 13.1,399.1 		"/>
		<polygon class="st1" points="67.1,384.8 67.1,357.2 13.1,361.6 13.1,396.5 		"/>
		<polygon class="st1" points="67.1,471.8 13.1,473.8 13.1,518.4 67.1,511.7 		"/>
		<polygon class="st1" points="67.1,415.2 30.1,417 13.1,418.9 13.1,473.8 67.1,471.8 		"/>
		<polygon class="st1" points="13.1,418.9 30.1,417 13.1,417.8 		"/>
		<polygon class="st3" points="1654.6,341.7 1705,339.3 1705,309.6 1654.6,315.8 		"/>
		<polygon class="st3" points="1705,464.3 1705,461.7 1666.9,466.4 		"/>
		<polygon class="st3" points="67.1,556.9 58.5,558.3 67.1,557.8 		"/>
		<polygon class="st3" points="1654.6,414.1 1654.6,467.1 1666.9,466.4 1705,461.7 1705,412.3 		"/>
		<polygon class="st3" points="67.1,556.9 67.1,511.7 13.1,518.4 13.1,560.9 58.5,558.3 		"/>
		<polygon class="st3" points="1654.6,414.1 1705,412.3 1705,339.3 1654.6,341.7 		"/>
		<polygon class="st4" points="1654.6,468 1654.6,512.3 1705,506.1 1705,464.3 1666.9,466.4 		"/>
		<polygon class="st4" points="1666.9,466.4 1654.6,467.1 1654.6,468 		"/>
		<polygon class="st4" points="58.5,558.3 13.1,565.4 13.1,585 67.1,584.4 67.1,557.8 		"/>
		<polygon class="st4" points="58.5,558.3 13.1,560.9 13.1,565.4 		"/>
		<polygon class="st1" points="67.1,663.8 13.1,670.5 13.1,714.8 67.1,708.2 		"/>
		<polygon class="st1" points="67.1,584.4 13.1,585 13.1,670.5 67.1,663.8 		"/>
		<polygon class="st3" points="1705,565.3 1705,506.1 1654.6,512.3 1654.6,565.9 		"/>
		<polygon class="st3" points="1654.6,661.6 1705,659.7 1705,580 1654.6,584.1 		"/>
		<polygon class="st3" points="13.1,717.9 13.1,721.2 324,709.9 110.9,709.9 		"/>
		<polygon class="st3" points="1654.6,584.1 1705,580 1705,565.3 1654.6,565.9 		"/>
		<polygon class="st3" points="110.9,709.9 67.1,709.9 67.1,708.2 13.1,714.8 13.1,717.9 		"/>
		<polygon class="st1" points="1654.6,709.9 1378.6,709.9 1349.3,711.3 951.9,760.3 1705,760.3 1705,694.8 1654.6,697.1 		"/>
		<polygon class="st1" points="1349.3,711.3 1378.6,709.9 1360.3,709.9 		"/>
		<polygon class="st1" points="1654.6,673.6 1654.6,697.1 1705,694.8 1705,667.4 		"/>
		<polygon class="st4" points="291.1,760.3 951.9,760.3 1349.3,711.3 		"/>
		<polygon class="st1" points="1654.6,661.6 1654.6,673.6 1705,667.4 1705,659.7 		"/>
		<polygon class="st1" points="324,709.9 13.1,721.2 13.1,760.3 291.1,760.3 1349.3,711.3 1360.3,709.9 		"/>
	</g>
	<g>
		<polygon class="st3" points="525.8,455.1 527.9,455 527.9,454.9 		"/>
		<polygon class="st1" points="318,213.1 273.7,213.1 273.7,280.6 318,275.1 		"/>
		<polygon class="st3" points="318,336.8 318,330.4 273.7,340 273.7,340.4 		"/>
		<polygon class="st3" points="318,275.1 273.7,280.6 273.7,340 318,330.4 		"/>
		<polygon class="st1" points="318,384.4 273.7,389.4 273.7,405.7 318,403.6 		"/>
		<polygon class="st1" points="318,344.1 273.7,352.1 273.7,389.4 318,384.4 		"/>
		<polygon class="st1" points="318,336.8 273.7,340.4 273.7,352.1 318,344.1 		"/>
		<polygon class="st1" points="318,462.7 273.7,464.3 273.7,486.2 318,480.8 		"/>
		<polygon class="st1" points="318,403.6 273.7,405.7 273.7,464.3 318,462.7 		"/>
		<polygon class="st3" points="318,517.7 273.7,524.6 273.7,546 318,543.4 		"/>
		<polygon class="st3" points="318,480.8 273.7,486.2 273.7,524.6 318,517.7 		"/>
		<polygon class="st4" points="318,551.1 318,543.4 273.7,546 273.7,582 469.9,579.7 469.9,551.1 		"/>
		<polygon class="st1" points="273.7,591.2 469.9,591.2 469.9,579.7 273.7,582 		"/>
		<polygon class="st1" points="719.8,213.1 527.9,213.1 527.9,249.2 719.8,225.5 		"/>
		<polygon class="st3" points="572.2,316.1 572.2,298.3 527.9,306.2 527.9,319.7 		"/>
		<polygon class="st3" points="719.8,243.2 673.8,253.2 719.8,253.2 		"/>
		<polygon class="st3" points="572.2,298.3 572.2,275.2 527.9,284.8 527.9,306.2 		"/>
		<polygon class="st3" points="572.2,275.2 572.2,253.2 673.8,253.2 719.8,243.2 719.8,225.5 527.9,249.2 527.9,284.8 		"/>
		<polygon class="st1" points="527.9,393.9 708.7,385.5 708.7,378.9 572.2,378.9 572.2,355.7 527.9,360.7 		"/>
		<polygon class="st1" points="527.9,360.7 572.2,355.7 572.2,316.1 527.9,319.7 		"/>
		<polygon class="st1" points="527.9,454.9 572.2,449.4 572.2,418.8 708.7,418.8 708.7,385.5 527.9,393.9 		"/>
		<polygon class="st3" points="527.9,484.9 527.9,531.5 572.2,528.9 572.2,477.9 		"/>
		<polygon class="st3" points="527.9,455 527.9,484.9 572.2,477.9 572.2,453.4 		"/>
		<polygon class="st3" points="572.2,449.4 527.9,454.9 527.9,455 572.2,453.4 		"/>
		<polygon class="st4" points="728.3,551.1 572.2,551.1 572.2,528.9 527.9,531.5 527.9,579 728.3,576.7 		"/>
		<polygon class="st1" points="728.3,591.2 728.3,582.3 655.8,591.2 		"/>
		<polygon class="st1" points="527.9,579 527.9,591.2 655.8,591.2 728.3,582.3 728.3,576.7 		"/>
		<polygon class="st1" points="763.3,213.1 763.3,220.2 820.5,213.1 		"/>
		<polygon class="st3" points="872.2,253.2 872.2,291.6 916.5,288 916.5,253.2 1025.7,253.2 1025.7,216.5 822.2,253.2 		"/>
		<polygon class="st3" points="858.5,213.1 763.3,233.8 763.3,253.2 822.2,253.2 1025.7,216.5 1025.7,213.1 		"/>
		<polygon class="st3" points="858.5,213.1 820.5,213.1 763.3,220.2 763.3,233.8 		"/>
		<polygon class="st1" points="916.5,375.9 916.5,316.8 872.2,321.8 872.2,377.9 		"/>
		<polygon class="st1" points="872.2,321.8 916.5,316.8 916.5,288 872.2,291.6 		"/>
		<polygon class="st1" points="916.5,406.9 916.5,375.9 872.2,377.9 872.2,412.4 		"/>
		<polygon class="st3" points="916.5,440.9 872.2,442.5 872.2,511.8 916.5,509.3 		"/>
		<polygon class="st3" points="872.2,442.5 916.5,440.9 916.5,424.1 872.2,431 		"/>
		<polygon class="st3" points="872.2,431 916.5,424.1 916.5,406.9 872.2,412.4 		"/>
		<polygon class="st4" points="872.2,564.5 872.2,575 916.5,574.5 916.5,559 		"/>
		<polygon class="st4" points="872.2,511.8 872.2,564.5 916.5,559 916.5,509.3 		"/>
		<polygon class="st1" points="872.2,591.2 916.5,591.2 916.5,574.5 872.2,575 		"/>
		<path class="st3" d="M1313.6,249.9c9.7-2,19.3-3,29-3c13.3,0,25.8,1.1,37.3,3.4l48.7-4v-26c-17.1-9-44.2-13.4-81.5-13.4
			c-16.3,0-32.4,2-48.1,6.1c-15.7,4-29.8,10.2-42.1,18.5c-12.3,8.2-22.2,18.7-29.7,31.4l64.9-5.3
			C1298.5,254,1305.7,251.5,1313.6,249.9z"/>
		<path class="st1" d="M1215.8,307.8c0,14.1,2.4,26.3,7.3,36.8c2.7,5.9,6.1,11.5,10,16.7l64.7-3c-5.2-3.3-10-6.7-14.1-10.1
			c-7-5.8-12.4-12.2-16-19.2c-3.6-7-5.4-15.4-5.4-25c0-10.4,2.4-19.2,7.1-26.4c0.1-0.2,0.3-0.4,0.4-0.6l-50.8,5.7
			C1216.8,290.4,1215.8,298.7,1215.8,307.8z"/>
		<path class="st1" d="M1428.5,270.1v-11.2l-16.2,1.8C1418,263.4,1423.5,266.5,1428.5,270.1z"/>
		<path class="st1" d="M1412.3,260.7l16.2-1.8v-12.6l-48.7,4C1391.6,252.5,1402.5,256,1412.3,260.7z"/>
		<path class="st1" d="M1218.9,282.6l50.8-5.7c4.7-6.9,10.7-12.6,18-17.1c1.4-0.8,2.8-1.6,4.3-2.4l-64.9,5.3c0,0-0.1,0.1-0.1,0.1
			C1223.5,268.9,1220.8,275.5,1218.9,282.6z"/>
		<path class="st1" d="M1237.9,367.3l62-7.7c-0.8-0.5-1.5-0.9-2.2-1.4l-64.7,3C1234.5,363.3,1236.1,365.3,1237.9,367.3z"/>
		<path class="st3" d="M1344.6,433.7c10.8,5.7,20.2,11.7,28.1,17.9c7.9,6.2,14.1,13.1,18.6,20.7c1.8,3,3.2,6.2,4.3,9.7l47.5-2.7
			c-1.3-7.5-3.5-14.5-6.7-20.9c-5.4-10.9-12.6-20.8-21.8-29.8c-1.9-1.9-3.9-3.7-5.9-5.5l-78.9,2.9
			C1334.8,428.5,1339.8,431.1,1344.6,433.7z"/>
		<path class="st3" d="M1272.7,395.3c11.4,6.9,23.7,13.6,36.9,20.3c7,3.5,13.6,7,20.1,10.3l78.9-2.9c-7.7-6.8-16.4-13.2-26-19
			c-12.1-7.4-25-14.4-38.5-21.1c-13.2-6.5-24.8-12.5-34.9-17.9c-1.1-0.6-2.2-1.2-3.3-1.8l-62.7,9.8
			C1251.6,381.1,1261.4,388.5,1272.7,395.3z"/>
		<path class="st3" d="M1237.9,367.3c1.6,1.8,3.3,3.6,5.1,5.4c0.1,0.1,0.2,0.2,0.4,0.3l62.7-9.8c-2.1-1.2-4.1-2.4-6.1-3.6
			L1237.9,367.3z"/>
		<path class="st4" d="M1377.8,542.5c-2.4,1.8-5,3.4-7.8,4.9l65.3-8.1c6-12.2,9-26.7,9-43.6c0-0.6,0-1.2,0-1.8l-46.4,5.7
			C1397.8,518.3,1391.1,532.6,1377.8,542.5z"/>
		<path class="st4" d="M1263.1,548.6c-9.2-2.9-18-6.5-26.4-10.7c-8.4-4.2-15.5-9-21.5-14.2v42.8l82.4-10.2c-2.2-0.3-4.4-0.6-6.7-1
			C1281.6,553.8,1272.3,551.5,1263.1,548.6z"/>
		<path class="st4" d="M1398,498.9c0,0.2,0,0.5,0,0.7l46.4-5.7c-0.1-5.1-0.5-10-1.3-14.7l-47.5,2.7
			C1397.1,487.1,1398,492.8,1398,498.9z"/>
		<path class="st3" d="M1316.7,557.7c-6,0-12.4-0.5-19.2-1.4l-82.4,10.2v4.5l196.6-2.3c8.7-7.1,15.9-15.6,21.5-25.6
			c0.7-1.2,1.3-2.5,1.9-3.7l-65.3,8.1C1356.9,554.3,1339.2,557.7,1316.7,557.7z"/>
		<path class="st3" d="M1215.2,575.9c4.9,3.3,11.5,6.4,19.6,9.1c8.2,2.7,16.8,5,26,6.9c9.1,1.8,18.1,3.3,26.9,4.2
			c8.8,1,16.2,1.5,22.1,1.5c17.9,0,35-1.8,51.2-5.4c16.2-3.6,30.5-9.4,42.8-17.5c2.8-1.8,5.4-3.8,8-5.9l-196.6,2.3V575.9z"/>
	</g>
	<text transform="matrix(1 0 0 1 224.1094 591.5449)" class="st5 st6 st7">LET S</text>
	<g>
		<path d="M1104.4,225.8c-1.4-2.9-2.9-8.6-2.9-16c0-17.1,10.8-30,30.7-30c19,0,31.9,12.9,31.9,31.7c0,7.6-1.6,12.3-2.7,14.4
			l-6.4-1.9c1.4-3,2.5-7.2,2.5-12.2c0-14.2-9.1-23.7-25-23.7c-14.8,0-24.4,8.5-24.4,23.3c0,4.8,1,9.6,2.5,12.8L1104.4,225.8z"/>
		<path d="M1133.4,285.6c-20.9,0-31.9-12.7-31.9-28.2c0-16,12.4-27.3,30.8-27.3c19.3,0,31.9,12,31.9,28.2
			C1164,274.9,1151.4,285.6,1133.4,285.6z M1132.4,238.5c-13,0-24.6,7-24.6,19.3c0,12.4,11.4,19.4,25.2,19.4
			c12.1,0,24.7-6.3,24.7-19.3C1157.7,245,1145.7,238.5,1132.4,238.5z"/>
		<path d="M1162.2,295.7c0.7,4.8,1.3,10.4,1.3,16.6c0,11.2-2.6,19.3-7.6,24.6c-4.9,5.4-12,8.5-21.8,8.5c-9.9,0-18-3.1-23.6-8.7
			c-5.7-5.7-8.7-15-8.7-26.8c0-5.6,0.3-10.3,0.7-14.2H1162.2z M1108.6,303.6c-0.4,2-0.4,4.9-0.4,7.9c0,16.7,9.4,25.8,25.7,25.8
			c14.3,0.1,23.4-8,23.4-24.6c0-4-0.4-7.1-0.8-9.2H1108.6z"/>
		<path d="M1130.8,387.1v-23.6H1109v26.3h-6.6v-34.1h60.7v32.8h-6.6v-24.9h-19.2v23.6H1130.8z"/>
	</g>
</g>
<rect x="-3351.9" y="95.8" transform="matrix(0.9773 -0.212 0.212 0.9773 -102.6254 -547.8976)" class="st1" width="1490.8" height="217.7"/>
<rect x="-3341.1" y="124.6" transform="matrix(0.9841 -0.1775 0.1775 0.9841 -80.0776 -448.8995)" class="st2" width="1583" height="197.3"/>
<rect x="-3342.4" y="169.4" transform="matrix(0.9937 -0.1123 0.1123 0.9937 -46.1909 -283.7993)" class="st3" width="1601.3" height="197.3"/>
<rect x="-3318.4" y="220.1" transform="matrix(0.988 -0.1545 0.1545 0.988 -79.1685 -381.0159)" class="st4" width="1655.7" height="197.3"/>
<rect x="-3333.4" y="242.8" transform="matrix(0.9993 -3.632836e-02 3.632836e-02 0.9993 -13.8783 -88.1735)" class="st1" width="1800.3" height="190"/>
<rect x="-3345" y="292.4" transform="matrix(0.9925 -0.1225 0.1225 0.9925 -66.317 -296.98)" class="st3" width="1791.7" height="197.3"/>
<rect x="-3423.5" y="345.7" transform="matrix(0.9967 -8.124057e-02 8.124057e-02 0.9967 -44.248 -198.8527)" class="st1" width="1915.4" height="197.3"/>
<rect x="-3390.5" y="395.7" transform="matrix(0.9989 -4.629158e-02 4.629158e-02 0.9989 -25.4912 -112.0873)" class="st1" width="1915.4" height="197.3"/>
<rect x="-3423.5" y="408.7" transform="matrix(0.9925 -0.1225 0.1225 0.9925 -80.6861 -298.1408)" class="st3" width="1915.4" height="197.3"/>
<rect x="-3444.5" y="471.7" transform="matrix(0.9984 -5.699462e-02 5.699462e-02 0.9984 -36.5479 -140.8061)" class="st4" width="1915.4" height="197.3"/>
<rect x="-3452.5" y="510.7" transform="matrix(0.9999 -1.166676e-02 1.166676e-02 0.9999 -7.2787 -29.0645)" class="st1" width="1915.4" height="197.3"/>
<rect x="-3357.5" y="509.7" transform="matrix(0.9925 -0.1225 0.1225 0.9925 -92.5578 -289.2983)" class="st3" width="1915.4" height="197.3"/>
<rect x="-3507.5" y="574.7" transform="matrix(0.9993 -3.632836e-02 3.632836e-02 0.9993 -26.144 -92.1849)" class="st1" width="1915.4" height="197.3"/>
<rect x="-3485.5" y="620.7" class="st2" width="1915.4" height="197.3"/>
<g>
	<path class="st5" d="M-2797.2,520.6h-109V310.5h24.6v187.8h84.4V520.6z"/>
	<path class="st5" d="M-2653.6,520.6h-111.3V310.5h106.6v22.3h-82v69.9h75.9v22.1h-75.9v73.5h86.7V520.6z"/>
	<path class="st5" d="M-2488.4,332.8h-60.6v187.8h-24.6V332.8h-60.5v-22.3h145.8V332.8z"/>
	<path class="st5" d="M-2383,512.1v-29c3.3,2.9,7.3,5.6,11.9,7.9c4.6,2.3,9.5,4.3,14.6,5.9s10.3,2.9,15.5,3.7
		c5.2,0.9,10,1.3,14.4,1.3c15.1,0,26.4-2.8,33.9-8.4c7.5-5.6,11.2-13.7,11.2-24.2c0-5.7-1.2-10.6-3.7-14.8c-2.5-4.2-5.9-8-10.3-11.5
		c-4.4-3.5-9.6-6.8-15.6-10c-6-3.2-12.5-6.5-19.4-10c-7.3-3.7-14.2-7.5-20.5-11.3c-6.3-3.8-11.9-8-16.6-12.6
		c-4.7-4.6-8.4-9.8-11.1-15.6c-2.7-5.8-4-12.6-4-20.4c0-9.6,2.1-17.9,6.3-25c4.2-7.1,9.7-12.9,16.6-17.5c6.8-4.6,14.6-8,23.4-10.3
		c8.7-2.2,17.7-3.4,26.7-3.4c20.7,0,35.8,2.5,45.3,7.5v27.7c-12.4-8.6-28.3-12.9-47.8-12.9c-5.4,0-10.7,0.6-16.1,1.7
		c-5.4,1.1-10.2,3-14.4,5.5c-4.2,2.5-7.6,5.8-10.3,9.8c-2.6,4-4,8.9-4,14.6c0,5.4,1,10,3,13.9c2,3.9,5,7.5,8.9,10.7
		c3.9,3.2,8.7,6.3,14.3,9.4c5.6,3,12.1,6.3,19.4,10c7.5,3.7,14.6,7.6,21.4,11.7s12.6,8.6,17.7,13.6c5.1,5,9.1,10.5,12.1,16.6
		c3,6.1,4.5,13,4.5,20.8c0,10.4-2,19.1-6.1,26.3c-4.1,7.2-9.5,13-16.4,17.5c-6.9,4.5-14.8,7.7-23.8,9.7c-9,2-18.5,3-28.4,3
		c-3.3,0-7.4-0.3-12.3-0.8c-4.9-0.5-9.9-1.3-14.9-2.3c-5.1-1-9.9-2.3-14.4-3.8C-2376.7,515.6-2380.3,514-2383,512.1z"/>
</g>
<text transform="matrix(1 0 0 1 -1729.1816 1163.5908)" class="st5 st6" style="font-size:300px;">LET S</text>
<text transform="matrix(0 1 -1 0 -1785.9404 973.248)" style="font-family:'MyriadPro-Regular'; font-size:50px;">CODE</text>
<path d="M-3050.9,198.6v416h940v-416H-3050.9z M-2138.9,586.6h-882v-362h882V586.6z"/>
</svg>
